<mxfile host="app.diagrams.net" modified="2024-07-09T04:24:25.518Z" agent="Mozilla/5.0 (Macintosh; Intel Mac OS X 10_15_7) AppleWebKit/537.36 (KHTML, like Gecko) Chrome/126.0.0.0 Safari/537.36" version="24.5.4" etag="xN1StEWdt379sD7Qdc90" type="github">
  <diagram name="Page-1" id="qPV92vLQKonoaqFBaLvn">
    <mxGraphModel>
      <root>
        <mxCell id="0" />
        <mxCell id="1" parent="0" />
      </root>
    </mxGraphModel>
  </diagram>
</mxfile>
